<?xml version="1.0" encoding="UTF-8" standalone="no"?>
<svg
   width="128"
   height="91"
   viewBox="0 0 33.866666 24.077083"
   version="1.1"
   xmlns="http://www.w3.org/2000/svg"
   xmlns:svg="http://www.w3.org/2000/svg">
   <g>
      <path
         id="path7300"
         style="fill:currentColor;stroke-width:1.22506;stroke-linecap:round;stroke-linejoin:round"
         d="M 16.933261,0 C 9.1803882,-7.3095487e-7 -7.4834624e-7,9.3133569 0,15.927958 c 0,6.614601 7.5812595,8.149125 16.933261,8.149125 9.352002,0 16.933406,-1.534524 16.933406,-8.149125 C 33.866667,9.3133599 24.686136,0 16.933261,0 Z M 10.69148,6.0501403 A 3.8934226,6.2931344 0 0 1 14.584877,12.34323 3.8934226,6.2931344 0 0 1 10.69148,18.636464 3.8934226,6.2931344 0 0 1 6.7980831,12.34323 3.8934226,6.2931344 0 0 1 10.69148,6.0501403 Z M 23.175186,6.173618 a 3.8934226,6.2931341 0 0 1 3.893397,6.29309 3.8934226,6.2931341 0 0 1 -3.893397,6.293233 3.8934226,6.2931341 0 0 1 -3.893397,-6.293233 3.8934226,6.2931341 0 0 1 3.893397,-6.29309 z" />
   </g>
</svg>
