<?xml version="1.0" encoding="UTF-8" standalone="no"?>
<!-- Created with Inkscape (http://www.inkscape.org/) -->

<svg
   width="128"
   height="91"
   viewBox="0 0 33.866666 24.077083"
   version="1.1"
   id="svg5"
   inkscape:version="1.1.2 (b8e25be8, 2022-02-05)"
   sodipodi:docname="favicon.svg"
   xmlns:inkscape="http://www.inkscape.org/namespaces/inkscape"
   xmlns:sodipodi="http://sodipodi.sourceforge.net/DTD/sodipodi-0.dtd"
   xmlns="http://www.w3.org/2000/svg"
   xmlns:svg="http://www.w3.org/2000/svg">
  <sodipodi:namedview
     id="namedview7"
     pagecolor="#ffffff"
     bordercolor="#666666"
     borderopacity="1.0"
     inkscape:pageshadow="2"
     inkscape:pageopacity="0.0"
     inkscape:pagecheckerboard="0"
     inkscape:document-units="mm"
     showgrid="false"
     inkscape:zoom="0.59330808"
     inkscape:cx="306.75463"
     inkscape:cy="446.64822"
     inkscape:window-width="1842"
     inkscape:window-height="816"
     inkscape:window-x="1121"
     inkscape:window-y="162"
     inkscape:window-maximized="0"
     inkscape:current-layer="layer1"
     units="px"
     width="483.77954px"
     fit-margin-top="0"
     fit-margin-left="0"
     fit-margin-right="0"
     fit-margin-bottom="0" />
  <defs
     id="defs2" />
  <g
     inkscape:label="Layer 1"
     inkscape:groupmode="layer"
     id="layer1">
    <path
       id="path7300"
       style="fill:#ffb7cf;stroke-width:1.22506;stroke-linecap:round;stroke-linejoin:round"
       d="M 16.933261,0 C 9.1803882,-7.3095487e-7 -7.4834624e-7,9.3133569 0,15.927958 c 0,6.614601 7.5812595,8.149125 16.933261,8.149125 9.352002,0 16.933406,-1.534524 16.933406,-8.149125 C 33.866667,9.3133599 24.686136,0 16.933261,0 Z M 10.69148,6.0501403 A 3.8934226,6.2931344 0 0 1 14.584877,12.34323 3.8934226,6.2931344 0 0 1 10.69148,18.636464 3.8934226,6.2931344 0 0 1 6.7980831,12.34323 3.8934226,6.2931344 0 0 1 10.69148,6.0501403 Z M 23.175186,6.173618 a 3.8934226,6.2931341 0 0 1 3.893397,6.29309 3.8934226,6.2931341 0 0 1 -3.893397,6.293233 3.8934226,6.2931341 0 0 1 -3.893397,-6.293233 3.8934226,6.2931341 0 0 1 3.893397,-6.29309 z" />
  </g>
</svg>
